# xmcd
#
# Track frame offsets:
#	150
#	15305
#	25822
#	38887
#	53057
#	69092
#	83675
#	98827
#	110222
#	123785
#	134707
#	146920
#	161197
#	172865
#
# Disc length: 2652 seconds
#
# Revision: 1
# Processed by: cddbd v1.5.2PL0 Copyright (c) Steve Scherf et al.
# Submitted via: audiograbber 1.82.02
#
DISCID=b60a5a0e
DTITLE=FERNADA SANTOS - HORIZONTE
DYEAR=1900
DGENRE=
TTITLE0=Lagrima Caida
TTITLE1=Ironia Lusitana
TTITLE2=Momento Musical
TTITLE3=So Lagrimas de Sonho
TTITLE4=Deste-me um Beijo e Vivi
TTITLE5=Balada do Silencio
TTITLE6=A Roda de uma Valsa
TTITLE7=Renuncia
TTITLE8=Entao Adeus
TTITLE9=Danca Hungara No 5
TTITLE10=Cantava Antigamente
TTITLE11=Poema Verde
TTITLE12=Qual e a Cidade
TTITLE13=Sonata Para Maria
EXTD=
EXTT0=
EXTT1=
EXTT2=
EXTT3=
EXTT4=
EXTT5=
EXTT6=
EXTT7=
EXTT8=
EXTT9=
EXTT10=
EXTT11=
EXTT12=
EXTT13=
PLAYORDER=
